<?xml version="1.0" encoding="utf-8"?>
<!-- Generator: Adobe Illustrator 23.0.1, SVG Export Plug-In . SVG Version: 6.00 Build 0)  -->
<svg version="1.1" id="Layer_1" xmlns="http://www.w3.org/2000/svg" xmlns:xlink="http://www.w3.org/1999/xlink" x="0px" y="0px"
	 viewBox="0 0 301.2 512" style="enable-background:new 0 0 301.2 512;" xml:space="preserve">
<style type="text/css">
	.st0{fill:#FFFFFF;}
</style>
<title>Asset 1@1x</title>
<g>
	<g id="Layer_1-2">
		<path class="st0" d="M150.6,0C67.6,0,0,67.6,0,150.6v210.8C0,444.4,67.6,512,150.6,512s150.6-67.6,150.6-150.6V150.6
			C301.2,67.6,233.6,0,150.6,0z M270.5,361.4c0,66.2-53.7,119.9-119.9,119.9c-66.2,0-119.9-53.7-119.9-119.9V150.6
			c0-66.2,53.7-119.9,119.9-119.9c66.2,0,119.9,53.7,119.9,119.9V361.4z"/>
		<path class="st0" d="M150.6,101.8c-8.5,0-15.4,6.9-15.4,15.4v70.7c-0.2,8.5,6.5,15.5,15,15.7s15.5-6.5,15.7-15c0-0.3,0-0.5,0-0.8
			v-70.7C166,108.7,159.1,101.9,150.6,101.8L150.6,101.8L150.6,101.8z"/>
	</g>
</g>
</svg>
