<svg xmlns="http://www.w3.org/2000/svg" viewBox="0 0 301.2 512"><title>Asset 1@1x</title><g id="Layer_2" data-name="Layer 2"><g id="Layer_1-2" data-name="Layer 1"><path d="M150.6,0C67.56,0,0,67.56,0,150.6V361.4C0,444.44,67.56,512,150.6,512s150.6-67.56,150.6-150.6V150.6C301.2,67.56,233.65,0,150.6,0ZM270.48,361.4a119.88,119.88,0,0,1-239.76,0V150.6a119.88,119.88,0,0,1,239.76,0Z"/><path d="M150.6,101.85a15.36,15.36,0,0,0-15.35,15.36v70.7a15.36,15.36,0,1,0,30.71,0v-70.7a15.36,15.36,0,0,0-15.36-15.36Z"/></g></g></svg>